HIERARCHY
ROOT Hips
{
	OFFSET -1.602300 6.242603 43.997101
	CHANNELS 6 Xposition Yposition Zposition Zrotation Xrotation Yrotation
	JOINT Chest
	{
		OFFSET -0.204900 1.598101 7.917301
		CHANNELS 6 Xposition Yposition Zposition Zrotation Xrotation Yrotation
		JOINT Chest2
		{
			OFFSET 0.000000 0.000000 3.404099
			CHANNELS 6 Xposition Yposition Zposition Zrotation Xrotation Yrotation
			JOINT Neck
			{
				OFFSET 0.000000 0.000000 7.928600
				CHANNELS 6 Xposition Yposition Zposition Zrotation Xrotation Yrotation
				JOINT Head
				{
					OFFSET 0.000000 0.000000 2.173897
					CHANNELS 6 Xposition Yposition Zposition Zrotation Xrotation Yrotation
					End Site
					{
						OFFSET 0.000000 0.000001 10.404503
					}
				}
			}
			JOINT LeftCollar
			{
				OFFSET 2.833800 -1.396299 4.843300
				CHANNELS 6 Xposition Yposition Zposition Zrotation Xrotation Yrotation
				JOINT LeftShoulder
				{
					OFFSET 4.363600 0.000000 0.000000
					CHANNELS 6 Xposition Yposition Zposition Zrotation Xrotation Yrotation
					JOINT LeftElbow
					{
						OFFSET 0.000000 -0.000001 -10.306900
						CHANNELS 6 Xposition Yposition Zposition Zrotation Xrotation Yrotation
						JOINT LeftWrist
						{
							OFFSET 0.000000 -0.000001 -12.404900
							CHANNELS 6 Xposition Yposition Zposition Zrotation Xrotation Yrotation
							End Site
							{
								OFFSET 0.000000 0.000000 -2.173901
							}
						}
					}
				}
			}
			JOINT RightCollar
			{
				OFFSET -2.354800 -1.897200 5.063099
				CHANNELS 6 Xposition Yposition Zposition Zrotation Xrotation Yrotation
				JOINT RightShoulder
				{
					OFFSET -4.375800 0.000000 0.000000
					CHANNELS 6 Xposition Yposition Zposition Zrotation Xrotation Yrotation
					JOINT RightElbow
					{
						OFFSET 0.000000 -0.000001 -10.005001
						CHANNELS 6 Xposition Yposition Zposition Zrotation Xrotation Yrotation
						JOINT RightWrist
						{
							OFFSET 0.000000 -0.000001 -13.174900
							CHANNELS 6 Xposition Yposition Zposition Zrotation Xrotation Yrotation
							End Site
							{
								OFFSET 0.000000 0.000000 -2.173901
							}
						}
					}
				}
			}
		}
	}
	JOINT LeftHip
	{
		OFFSET 2.240600 0.386800 -2.614101
		CHANNELS 6 Xposition Yposition Zposition Zrotation Xrotation Yrotation
		JOINT LeftKnee
		{
			OFFSET 0.000000 -0.000001 -18.592899
			CHANNELS 6 Xposition Yposition Zposition Zrotation Xrotation Yrotation
			JOINT LeftAnkle
			{
				OFFSET 0.000000 -0.000001 -18.765800
				CHANNELS 6 Xposition Yposition Zposition Zrotation Xrotation Yrotation
				End Site
				{
					OFFSET 0.000000 -8.655000 0.000000
				}
			}
		}
	}
	JOINT RightHip
	{
		OFFSET -2.014900 -0.220900 -2.615898
		CHANNELS 6 Xposition Yposition Zposition Zrotation Xrotation Yrotation
		JOINT RightKnee
		{
			OFFSET 0.000000 -0.000001 -18.633900
			CHANNELS 6 Xposition Yposition Zposition Zrotation Xrotation Yrotation
			JOINT RightAnkle
			{
				OFFSET 0.000000 -0.000001 -18.285101
				CHANNELS 6 Xposition Yposition Zposition Zrotation Xrotation Yrotation
				End Site
				{
					OFFSET 0.000000 -7.524500 0.000000
				}
			}
		}
	}
}
MOTION
Frames: 5
Frame Time: 0.041667
-9.112004 20.822397 10.459717 -33.715204 38.139476 -8.741428 -0.204900 1.598100 7.917308 -16.569009 2.385867 15.353808 0.000002 0.000002 3.404099 0.532737 -17.981590 -1.557101 -0.000005 0.000002 7.928604 57.467771 -10.523981 -10.186165 0.000002 -0.000002 2.173908 9.105645 -1.530113 11.832383 2.833803 -1.396297 4.843309 13.540563 2.143937 23.711271 4.363593 0.000000 -0.000005 3.393042 18.370227 -93.952496 -0.000002 -0.000001 -10.306894 597.764988 -181.581166 537.536762 0.000007 -0.000002 -12.404898 -13.380871 361.076229 -315.496027 -2.354797 -1.897197 5.063106 -11.449021 -4.816649 10.075141 -4.375795 -0.000001 -0.000005 9.314192 -0.908045 131.155669 -0.000003 0.000003 -10.004996 -605.482719 -178.053169 -541.678152 0.000004 0.000005 -13.174899 -279.325285 -159.062456 130.289383 2.240597 0.386805 -2.614112 136.109196 -37.975148 147.189238 0.000000 -0.000001 -18.592901 -6.982507 31.407921 8.929975 0.000000 0.000002 -18.765797 -41.884769 25.647155 16.841232 -2.014901 -0.220893 -2.615902 -102.525968 -31.859346 -113.646555 -0.000002 0.000002 -18.633886 82.576017 -19.940133 -150.300894 -0.000005 -0.000006 -18.285086 -74.312725 32.595927 -155.131027
-9.130103 20.853699 10.448704 -33.337563 38.357666 -9.362464 -0.204899 1.598105 7.917306 -16.692654 2.404700 15.615361 -0.000002 0.000003 3.404104 0.454932 -17.992663 -1.557679 0.000003 -0.000002 7.928602 57.472149 -10.262645 -10.011864 0.000002 0.000000 2.173905 9.160622 -1.631840 11.820733 2.833809 -1.396300 4.843306 13.367926 2.280557 23.815111 4.363596 -0.000001 -0.000003 3.625648 18.482570 -94.321634 0.000000 -0.000000 -10.306894 598.146276 -181.791632 537.408136 0.000010 -0.000003 -12.404896 -13.115807 361.071776 -315.520179 -2.354793 -1.897199 5.063098 -11.452383 -4.829003 10.429693 -4.375795 0.000002 -0.000008 9.545463 -0.577101 131.229818 0.000001 -0.000000 -10.005002 -605.588013 -178.144816 -541.805248 0.000004 0.000007 -13.174897 -279.087103 -159.188514 131.545878 2.240599 0.386805 -2.614105 136.438793 -37.999112 147.487102 0.000000 -0.000001 -18.592901 -7.122738 31.230811 9.171884 -0.000002 0.000001 -18.765799 -41.079404 25.583843 16.425058 -2.014900 -0.220889 -2.615899 -102.873229 -31.800753 -114.027932 -0.000003 0.000006 -18.633884 82.981819 -19.867468 -150.299815 -0.000005 -0.000007 -18.285082 -74.281695 32.635067 -155.167104
-9.134600 20.883602 10.431404 -33.025583 38.511042 -9.893411 -0.204899 1.598099 7.917305 -16.723310 2.507936 15.785812 0.000000 0.000006 3.404101 0.155266 -18.019494 -1.706202 0.000001 -0.000002 7.928603 57.648497 -9.920071 -9.758824 0.000004 -0.000000 2.173903 9.232037 -1.733520 11.790160 2.833805 -1.396302 4.843305 13.361771 2.449285 24.101262 4.363594 0.000000 -0.000001 3.852287 18.620457 -94.728618 -0.000000 -0.000002 -10.306895 598.536799 -181.959217 537.295137 0.000004 -0.000003 -12.404898 -12.975568 361.109588 -315.603425 -2.354797 -1.897202 5.063100 -11.327796 -4.936269 10.728285 -4.375793 0.000005 -0.000016 9.958376 -0.329080 131.426172 0.000002 0.000001 -10.004991 -605.496379 -178.156291 -541.875298 0.000003 0.000005 -13.174904 -278.380861 -159.295980 132.774206 2.240599 0.386799 -2.614103 136.508502 -37.867539 147.635919 0.000001 0.000001 -18.592901 -7.258185 31.123779 9.270451 0.000002 0.000001 -18.765795 -40.591165 25.495322 16.248106 -2.014898 -0.220904 -2.615899 -103.145378 -31.394678 -114.390581 -0.000002 0.000004 -18.633888 83.691428 -19.682177 -150.390916 -0.000006 -0.000006 -18.285086 -74.191017 32.698018 -155.253779
-9.130101 20.910805 10.410213 -32.809002 38.602358 -10.287912 -0.204901 1.598101 7.917310 -16.638899 2.712331 15.859378 -0.000001 0.000003 3.404102 0.072073 -18.045280 -1.690450 -0.000002 0.000002 7.928600 57.608807 -9.678171 -9.505834 0.000003 0.000000 2.173897 9.290223 -1.827096 11.738064 2.833804 -1.396297 4.843308 13.090139 2.536870 24.207176 4.363593 -0.000000 -0.000004 4.058912 18.814009 -94.966691 -0.000001 0.000001 -10.306892 598.933496 -182.071369 537.205580 0.000009 -0.000003 -12.404897 -12.886311 361.167262 -315.724374 -2.354797 -1.897200 5.063101 -11.586296 -5.093711 11.441048 -4.375794 0.000004 -0.000008 10.521427 -0.247342 131.134701 -0.000001 0.000000 -10.004998 -605.186453 -178.175060 -541.934967 0.000005 0.000004 -13.174908 -277.788247 -159.380333 133.712114 2.240597 0.386806 -2.614102 136.615067 -37.863154 147.765870 0.000000 0.000000 -18.592901 -7.152004 30.964683 9.276858 -0.000002 0.000000 -18.765800 -40.413642 25.376058 16.382460 -2.014902 -0.220892 -2.615901 -103.351246 -31.039767 -114.680010 -0.000001 0.000004 -18.633884 84.273736 -19.501331 -150.490664 -0.000003 -0.000006 -18.285086 -74.105927 32.755559 -155.334580
-9.119102 20.933903 10.386105 -32.690409 38.650558 -10.561711 -0.204900 1.598101 7.917302 -16.436587 2.995705 15.873325 0.000000 -0.000000 3.404101 -0.026102 -18.088810 -1.676314 -0.000001 0.000000 7.928601 57.566665 -9.471887 -9.229848 0.000002 -0.000002 2.173903 9.350934 -1.892056 11.656526 2.833803 -1.396297 4.843306 12.806250 2.654556 24.362286 4.363591 -0.000004 0.000001 4.218119 18.925609 -95.220589 0.000000 -0.000000 -10.306893 599.254078 -182.164055 537.133508 0.000008 -0.000003 -12.404900 -12.741621 361.249252 -315.859421 -2.354797 -1.897197 5.063102 -11.894693 -5.352393 11.770339 -4.375793 0.000004 -0.000005 11.108124 -0.052264 131.172048 -0.000004 -0.000002 -10.004998 -604.837621 -178.191125 -541.944146 0.000001 0.000004 -13.174899 -277.287731 -159.477459 134.457943 2.240599 0.386804 -2.614108 136.782215 -37.947011 147.901490 -0.000001 0.000002 -18.592899 -6.771032 30.793273 9.168430 0.000000 0.000001 -18.765797 -40.578519 25.215271 16.844355 -2.014902 -0.220893 -2.615905 -103.492331 -30.702458 -114.919353 -0.000001 0.000003 -18.633886 84.784115 -19.314274 -150.603281 -0.000006 -0.000006 -18.285084 -74.016328 32.810603 -155.417813
